<svg width="144" height="72" viewBox="0 0 144 72" fill="none" xmlns="http://www.w3.org/2000/svg">
          <path d="M80.2342 37.2935C80.133 37.4381 80.0722 37.6261 80.0317 37.8315C79.7859 37.898 79.7859 38.3724 79.6123 38.4187C79.5776 38.1178 79.8148 37.574 79.6094 37.3311C79.433 37.8633 79.5111 38.4244 79.3028 38.8988C79.1727 39.1967 78.8516 39.4802 78.6318 39.781C78.3946 40.0992 78.1834 40.4232 77.9607 40.6632C77.8219 40.8108 77.6512 40.9207 77.5181 41.0595C77.0872 41.5165 76.6677 42.0025 76.1587 42.3322C75.9793 42.3669 75.9186 42.526 75.693 42.5116C75.5831 42.6533 75.369 42.6909 75.2504 42.8268C73.3356 43.6946 71.1807 44.519 69.0084 45.0512C68.8001 45.1032 68.5485 45.0975 68.3286 45.1437C67.9873 45.2189 67.6605 45.407 67.2382 45.3086C68.1175 43.9318 69.2803 42.474 70.3679 41.2504C70.7583 40.8108 71.0736 40.3248 71.4554 39.943C71.6087 39.7897 71.843 39.6798 71.953 39.4918C72.2943 38.9191 71.9385 38.2827 71.5798 37.8806C70.9493 37.7187 70.686 38.1207 70.3447 38.4244C69.9571 38.7686 69.6592 39.11 69.3179 39.46C68.8811 39.9112 68.4935 40.3827 68.0915 40.8455C67.5332 41.4876 66.9894 42.1269 66.4774 42.6851C65.9828 43.4343 65.4159 44.1892 64.9328 44.9326C64.7766 45.1756 64.632 45.4619 64.4556 45.6817C64.2849 45.89 64.1576 45.9768 64.0101 46.214C63.9002 46.3933 63.7758 46.5321 63.7816 46.778C63.6543 46.8387 63.5705 46.9834 63.449 47.1222C63.3535 47.2321 63.1973 47.3623 63.1163 47.4953C62.9746 47.721 62.963 48.097 62.8502 48.4123C62.587 49.1614 62.7085 49.4883 63.1163 49.9395C63.2812 49.9684 63.3882 50.0494 63.5213 50.1102C64.3833 50.2056 65.3841 50.1362 66.2113 50.035C66.7927 49.847 67.3857 49.6705 68.0134 49.5317C68.6757 49.199 69.4307 49.0515 70.1741 48.8461C71.36 48.5164 72.5662 48.1433 73.7261 47.8106C74.2236 47.5156 74.8975 47.4057 75.3459 47.0586C75.4442 47.0673 75.4789 47.0123 75.5628 47.0094C76.0979 46.6449 76.6938 46.1995 77.1653 45.7685C77.3099 45.6384 77.5066 45.5487 77.6338 45.4243C77.7727 45.2913 77.9086 45.083 78.0533 44.9181C78.438 44.4698 78.7243 44.0966 79.0338 43.5558C79.2045 43.2607 79.4185 42.9136 79.5169 42.6157C79.5747 42.4392 79.54 42.2541 79.5834 42.0748C79.621 41.907 79.7512 41.745 79.8119 41.5628C79.8726 41.3777 79.8698 41.1723 79.9334 40.9959C80.0317 40.7269 80.1561 40.4926 80.2226 40.2149C80.4483 39.2662 80.3383 38.3116 80.3152 37.3108C80.2805 37.3108 80.2776 37.2761 80.2342 37.2819" fill="black"></path>
          <path d="M63.8048 36.7415C63.9755 37.265 64.2416 37.8175 64.4759 38.3584C64.8172 39.1509 65.1527 39.8249 65.8469 40.0881C65.8238 40.0707 65.818 40.036 65.8238 39.9897C65.9106 39.9897 66.006 40.1141 66.0668 40.0505C65.9713 39.9926 66.113 39.955 66.1506 39.9435C66.3792 39.9926 66.5643 40.0794 66.8275 40.0939C66.8448 39.8509 66.6482 39.8567 66.5643 39.7063C66.5845 39.741 66.5961 39.5327 66.5411 39.5443C66.7176 39.5269 66.8506 39.4633 67.0589 39.4749C67.2382 39.3852 67.3597 39.2348 67.5824 39.1885C67.6692 39.0208 67.7878 38.8848 67.97 38.8183C67.7271 38.4249 67.6432 37.7336 67.6779 37.291C67.6837 37.32 67.7213 37.3576 67.7328 37.32C67.5767 36.5795 67.4523 35.7551 67.1601 35.0262C66.842 34.2308 66.5411 33.2965 66.2635 32.5358C66.2056 32.3738 66.1796 32.206 66.1651 32.073C66.1506 31.9341 66.1275 31.7721 66.1217 31.6362C66.0928 31.0143 66.2808 30.9391 66.5816 30.5052C66.7552 30.2536 66.8969 29.9875 67.0329 29.8081C67.7068 28.9172 68.239 28.2346 68.8783 27.3784C69.4741 26.5772 69.9948 25.909 70.6109 25.1628C70.9175 24.7925 71.2791 24.4252 71.3427 23.9566C71.389 23.9132 71.3948 23.8264 71.4555 23.7946C71.4931 23.5748 71.47 23.2913 71.551 23.1178C71.4902 23.0252 71.3977 22.9644 71.3398 22.869C70.8625 22.7938 70.7006 22.4178 70.3216 22.25C68.5167 22.6202 66.7291 23.0136 65.1585 23.6297C65.0862 23.6558 65.066 23.7367 64.9936 23.7628C64.5164 23.864 64.1982 24.133 63.8395 24.3615C63.0701 24.6595 62.5958 25.2669 61.8582 25.5937C61.8321 25.6776 61.7656 25.7181 61.7454 25.8078C61.054 26.3169 60.4032 26.8664 59.9665 27.6416C59.8161 28.2491 59.8855 28.9895 60.3888 29.3887C60.4582 29.4437 60.5652 29.4928 60.6578 29.5594C60.8255 29.678 61.1235 29.9961 61.3259 30.0366C61.8871 30.1465 62.0086 29.7763 62.2342 29.5391C62.2342 29.4408 62.2371 29.3395 62.24 29.2412C62.402 28.949 62.6739 28.7668 62.8532 28.4949C63.4259 28.0842 63.9899 27.5173 64.6726 27.3119C64.4643 27.7226 64.1953 28.0726 64.0218 28.521C63.5098 29.3771 62.8272 30.1552 62.3094 30.9825C62.133 31.2631 61.8929 31.5494 61.7743 31.8387C61.7106 31.992 61.7251 32.1771 61.6557 32.3246C61.54 32.5676 61.3491 32.744 61.2883 33.0217C61.1669 32.987 61.2565 33.1721 61.1235 33.1258C61.1003 33.201 61.1611 33.1981 61.1466 33.2618C60.6693 33.8374 60.3743 34.601 59.8565 35.1332C59.6338 35.4948 59.4256 35.8564 59.1826 36.2035C59.0409 36.4059 58.8326 36.5679 58.6822 36.7617C58.3177 37.2332 58.0401 37.7741 57.6467 38.2051C57.583 38.2774 57.4587 38.3121 57.3979 38.3902C57.1607 38.6939 57.074 39.2377 57.207 39.6629C57.3487 39.686 57.4934 39.7063 57.557 39.8075C57.7132 39.6629 57.8318 39.6166 58.1037 39.6282C58.2338 39.5241 58.3351 39.3881 58.5173 39.3389C58.6243 39.365 58.6619 39.5761 58.8095 39.6166C58.8933 39.6398 59.0061 39.5588 59.1363 39.5703C59.307 39.5819 59.4921 39.7352 59.6223 39.7439C59.8537 39.7612 60.0272 39.6253 60.1689 39.5385C61.2652 38.1935 62.2978 36.7848 63.3305 35.3704C63.5416 35.7811 63.6573 36.2526 63.8164 36.7386" fill="black"></path>
          <path d="M58.2016 32.6542C58.1409 32.5934 57.921 32.8335 57.8487 32.6744C58.0339 32.5327 58.3665 32.5471 58.4533 32.3071C58.3029 32.2839 57.9384 32.5587 57.7446 32.3996C57.8082 32.4228 57.8719 32.3649 57.7735 32.3736C57.6434 32.443 57.4496 32.336 57.3397 32.336C55.0922 32.3678 53.3422 32.9174 51.5315 33.4033C50.9877 33.4814 50.4989 33.7562 49.9724 33.9124C49.4749 34.0599 48.9716 34.1698 48.5233 34.3145C47.7365 34.5719 46.9151 34.9103 46.1688 35.1851C45.2461 35.5264 44.3725 35.9921 43.4296 36.2669C43.1172 36.4838 42.7383 36.6082 42.4143 36.7615C41.7548 37.0681 41.1937 37.4268 40.5718 37.7537C40.0627 38.0198 39.5536 38.2888 39.033 38.5346C38.6193 38.8181 38.2549 39.0582 37.847 39.3243C37.6156 39.4747 37.4074 39.6569 37.1847 39.8247C36.7392 40.1631 36.2272 40.4668 35.8599 40.8284C35.614 41.0714 35.507 41.4213 35.2177 41.6296C34.2488 41.7829 34.055 42.749 34 43.8568C34.1938 44.0188 34.4454 44.3746 34.7752 44.363C34.9372 44.3572 35.1946 44.1056 35.4347 44.0246C35.695 43.9349 36.0132 43.9639 36.2793 43.9349C36.4355 43.9176 36.6119 43.7961 36.7971 43.8655C37.0603 43.7701 37.309 43.6602 37.6446 43.6399C38.5326 43.2552 39.6288 42.8792 40.2305 42.1763C40.5284 41.8292 40.5371 41.297 40.7771 40.8313C41.1561 40.4581 41.7085 40.2962 42.287 40.0503C42.7817 39.8391 43.2213 39.5181 43.687 39.3735C44.2597 39.197 44.7023 38.9685 45.22 38.7834C45.9866 38.5057 46.8196 38.2569 47.5716 37.9937C47.9592 37.8578 48.3006 37.7218 48.665 37.6119C48.9861 37.5136 49.3158 37.4644 49.6224 37.3603C50.0332 37.2214 50.4092 37.019 50.7997 36.8975C52.3588 36.4173 54.0798 35.9024 55.3438 35.2054C55.4884 35.1244 55.6822 35.0549 55.7835 34.9711C55.8587 34.9074 55.8963 34.783 55.9802 34.7049C56.4025 34.3116 57.1372 33.9876 57.3657 33.4322C57.6925 33.2269 57.9124 32.9116 58.1987 32.6628" fill="black"></path>
          <path d="M75.3863 27.9222C75.207 28.2491 75.1347 28.6396 74.8483 28.8883C73.8099 31.1184 72.5835 33.311 71.9731 36.0762C71.8806 36.1456 71.8893 36.3221 71.8574 36.4551C71.9182 36.4754 72.0599 36.3944 72.1264 36.5159C72.0107 36.7502 71.7388 36.8225 71.707 37.077C72.3665 37.0915 72.7368 36.7993 73.3702 36.7878C74.1078 36.5592 74.5041 35.975 74.9756 35.4659C75.7508 34.1671 76.5231 32.8221 77.1825 31.3874C77.2635 31.2081 77.3677 31.0085 77.44 30.8234C77.6077 30.3866 77.8189 30.1494 77.952 29.7214C78.0358 29.7532 78.0185 29.6809 78.0619 29.6693C78.2933 29.0127 78.7532 28.5962 78.9701 27.9251C79.268 27.5896 79.3837 27.0603 79.6499 26.69C79.8523 25.938 80.0924 25.0962 80.1647 24.2285C80.2168 23.6066 79.9449 23.3607 79.8147 22.9182C79.5457 22.6781 79.2536 22.3397 78.7705 22.2703C78.623 22.25 78.2325 22.2269 78.1458 22.2558C77.5036 22.4756 76.9743 22.5826 77.1421 23.4012C76.9193 23.6471 77.1912 23.8872 77.1797 24.162C77.171 24.3615 77.035 24.5669 76.9772 24.7549C76.8615 25.1396 76.7197 25.5041 76.5722 25.8309C76.4797 25.8454 76.5028 25.9813 76.4045 25.99C76.176 26.4875 75.9012 26.9879 75.6669 27.4681C75.5859 27.633 75.4731 27.7631 75.3863 27.9251" fill="black"></path>
          <path d="M40.6372 26.5348C40.6372 26.6332 40.7008 26.6679 40.7124 26.7547C40.6343 27.4402 40.4463 28.0158 40.5591 28.8141C40.5736 28.8893 40.6719 28.8835 40.6632 28.979C40.698 30.0319 40.6256 31.16 40.7008 32.2649C40.7645 33.1905 40.9091 34.119 41.2446 34.7496C41.5223 34.9752 42.0227 35.033 42.2512 34.7177C42.3091 34.6367 42.2859 34.5268 42.338 34.4198C42.4335 34.2318 42.662 34.0091 42.8124 33.7777C43.0062 33.4826 43.2434 33.124 43.4834 32.9504C43.6107 32.9244 43.631 33.0864 43.7264 33.0112C43.7611 32.6207 44.0938 32.1116 44.0272 31.6604C44.0012 31.481 43.8768 31.3133 43.8768 31.0587C43.8768 30.2459 44.1111 29.3406 44.1487 28.5943C44.2991 28.5827 44.25 28.3658 44.3194 28.2732C44.5392 28.2241 44.5942 28.0042 44.788 27.929C45.0483 27.8683 45.2103 27.7034 45.5256 27.7005C45.5371 27.4691 45.783 27.4894 45.9652 27.4373C45.971 27.4923 46.0375 27.4923 46.0433 27.5472C45.7888 28.36 45.6008 29.2335 45.5227 30.1967C45.4995 30.4889 45.6123 30.8273 45.5574 31.1195C45.4388 31.7471 44.3685 31.5128 44.4987 32.3459C44.114 32.8318 43.7814 33.8905 44.2905 34.4603C44.5797 34.5818 44.869 34.7872 45.2334 34.7524C45.3318 34.7091 45.4041 34.6367 45.5342 34.6223C46.2255 33.983 47.0962 33.5318 47.9842 33.1008C48.0449 33.0806 48.0218 32.9736 48.097 32.9678C48.5164 32.8087 48.8519 32.3835 49.1759 32.1232C49.3118 32.0103 49.4565 31.9583 49.5346 31.8599C49.5837 31.7992 49.5751 31.7095 49.6213 31.6459C49.6821 31.5591 49.8325 31.5071 49.9251 31.4087C50.0928 31.2323 50.1333 31.0443 50.2606 30.9546C50.4486 30.8215 50.6598 30.7897 50.7841 30.6133C50.9432 30.3905 50.9085 30.1244 51.0474 29.8323C51.1139 29.8091 51.2036 29.812 51.2122 29.7282C51.2498 28.5856 51.8833 27.7757 52.2825 26.7373C52.3548 26.5493 52.5052 26.396 52.592 26.2282C52.7221 25.9766 52.7858 25.7105 52.8812 25.4472C52.9853 25.1638 53.2196 24.9758 53.2775 24.6692C53.3151 24.4696 53.2919 24.3134 53.3411 24.1803C53.4134 23.9836 53.4684 23.8419 53.5147 23.6423C53.6043 23.2692 53.7258 22.8874 53.8907 22.5634C54.0064 22.3349 54.2175 22.1209 54.313 21.8663C54.3853 21.6754 54.313 21.4556 54.3275 21.2705C54.3361 21.1634 54.4056 21.0217 54.3911 20.8915C54.2841 20.0122 52.6209 19.8387 51.8544 20.1308C51.7387 20.1742 51.6692 20.2726 51.5796 20.3159C51.0474 20.5647 50.4428 20.663 49.8846 20.8771C48.5685 21.3833 47.2206 22.2568 45.7483 22.4419C45.6673 22.3754 45.5747 22.2481 45.4243 22.3262C45.3665 22.2047 45.271 22.118 45.1032 22.1006C44.9413 21.7767 44.6115 21.6147 44.4698 21.2734C44.1863 21.0477 43.8942 21.0188 43.6367 20.8482C43.4748 20.932 43.2665 20.8482 43.0669 20.8626C43.0149 20.8655 42.9512 20.9552 42.8471 20.9668C42.6678 20.987 42.5058 20.9523 42.4364 21.1201C42.3843 21.1258 42.3785 21.0882 42.3293 21.0911C42.1587 21.3225 41.9417 21.499 41.8 21.7593C41.7508 21.8287 41.6236 21.8172 41.5541 21.8634C41.531 22.0659 41.4211 22.1874 41.1926 22.2366C41.0827 22.6531 40.7529 22.7717 40.7095 23.2027C40.6488 23.2576 40.5909 23.3213 40.5418 23.3878C40.6227 23.5932 40.4723 23.7956 40.4203 23.9547C40.3769 24.6431 40.3885 24.9353 40.4087 25.6642C40.5851 25.9129 40.7153 26.1472 40.6343 26.5377" fill="black"></path>
          <path d="M97.5424 43.8029C97.5829 43.7074 97.687 43.531 97.6321 43.4326C97.6378 43.5772 97.4788 43.6929 97.5424 43.8029Z" fill="black"></path>
          <path d="M97.0336 45.165C97.0249 45.2547 96.9179 45.3878 96.9989 45.4803C97.0018 45.3762 97.1406 45.2113 97.0336 45.165Z" fill="black"></path>
          <path d="M92.7293 41.319C92.8276 41.2438 92.5789 41.2843 92.5673 41.2294C92.628 41.1773 92.7322 41.1744 92.7351 41.0616C92.5962 41.0674 92.5789 41.2033 92.4285 41.1976C92.359 41.1542 92.2781 41.1224 92.2404 41.05C92.3706 41.0703 92.3966 40.969 92.5181 40.9141C92.6309 40.9054 92.7466 41.0414 92.8479 40.9488C92.7611 40.943 92.6859 40.9257 92.6859 40.8302C92.7524 40.836 92.8189 40.8389 92.8247 40.7753C92.6165 40.5872 92.3764 40.243 92.5152 39.8815C92.0987 38.7389 91.876 37.4749 91.4074 36.4828C91.3467 36.0084 91.1355 35.7191 90.9938 35.2737C90.7913 34.6345 90.5397 33.9287 90.3227 33.1998C90.1 32.4535 89.6227 31.7217 89.4087 31.0073C89.2843 30.5936 89.5707 30.4721 89.8397 30.1597C90.0277 29.9399 90.207 29.7548 90.3459 29.5986C91.2715 28.5544 91.9107 27.7214 92.7437 26.5962C93.2268 25.9454 93.785 25.3726 94.1842 24.7421C94.5313 24.1954 94.5631 23.559 94.6354 22.8359C94.271 22.6566 93.9673 22.4194 93.49 22.5235C93.1863 22.5901 92.8826 22.7983 92.5818 22.6739C92.5355 22.7318 92.4487 22.7434 92.388 22.7838C91.0256 22.8128 89.9756 23.4318 88.7463 23.7008C88.4455 23.938 88.0434 24.0681 87.6385 24.1896C87.2191 24.0392 86.9558 24.4731 86.5856 24.6235C86.2703 25.0979 85.7236 25.3235 85.2464 25.6214C85.1856 25.6879 85.1943 25.8644 85.0786 25.7892C84.9716 25.9916 84.8472 26.2838 84.7084 26.4371C84.6476 26.5036 84.5406 26.5123 84.4856 26.5759C84.2311 26.8767 84.4307 27.2557 84.4625 27.7185C84.6042 27.8371 84.7344 27.9701 84.8674 28.1003C85.3997 28.2565 85.848 28.0858 86.0823 27.7561C86.5104 27.5449 86.7505 27.2152 87.1699 26.9809C87.6182 26.7292 88.188 26.4139 88.6393 26.3011C88.9083 26.1073 89.2351 25.9743 89.6343 25.9222C89.7413 25.795 90.045 25.7284 90.2417 25.7921C89.4607 26.7553 88.5149 27.5362 87.5806 28.3317C87.5459 28.3635 87.4823 28.3606 87.4157 28.3577C87.4244 28.4647 87.3579 28.4908 87.329 28.5544C86.6724 29.0375 86.0823 29.5812 85.5385 30.1424C84.9716 30.7267 84.4191 31.2358 83.8001 31.7882C83.3113 32.225 82.8543 32.7514 82.3191 33.0407C82.0096 33.3646 81.7435 33.7407 81.2865 33.9027C81.2865 33.975 81.2865 34.0415 81.2287 34.0444C80.7688 34.325 80.3002 34.7154 80.4274 35.5398C80.5807 35.5745 80.627 35.7134 80.7514 35.777C80.8121 36.3352 81.622 36.9774 82.241 36.6968C82.4204 36.6158 82.4435 36.3729 82.6344 36.2485C82.8861 36.1762 83.0336 36.0605 83.2447 35.9477C84.0604 35.508 84.7951 34.9873 85.5009 34.4551C85.7873 34.2411 86.0302 33.9547 86.3658 33.8188C87.4042 36.5464 88.2459 39.6472 90.1549 41.5938C90.4934 41.7876 90.7942 42.019 91.2425 42.1058C91.3235 42.0075 91.4421 41.9525 91.5491 41.8831C91.6793 41.9033 91.8557 42.0248 91.9309 42.0075C91.9223 41.886 91.8239 41.8542 91.8008 41.7471C91.9425 41.6748 91.9888 41.4926 92.1913 41.4405C92.3793 41.3942 92.6801 41.5562 92.7437 41.3104" fill="black"></path>
          <path d="M99.6289 39.8179C99.8776 39.4621 100.355 39.1815 100.259 38.5163C100.219 38.2241 99.9904 37.7729 99.866 37.7064C99.4351 37.4836 99.3743 38.0101 98.9809 38.0014C97.9628 39.1873 96.8607 40.4832 96.0161 41.8484C95.8889 42.0509 95.7298 42.21 95.5938 42.4096C95.3537 42.7596 95.2149 43.1963 94.9922 43.5666C94.7405 43.986 94.3616 44.3157 94.1447 44.7467C93.9682 45.0967 93.8525 45.4814 93.6819 45.8517C93.5228 46.1988 93.3058 46.5343 93.1641 46.8987C92.9674 47.402 92.953 48.0789 92.7707 48.6892C92.7302 48.828 92.6435 48.9264 92.6261 49.0565C92.5075 49.9735 93.0311 50.8152 93.8323 50.4854C94.6046 50.7921 95.3566 50.1181 96.1145 50.309C96.3256 50.2483 96.4153 50.1123 96.5859 50.0631C96.7479 50.0169 96.9215 50.0718 97.0806 50.0458C97.2541 50.0169 97.4624 49.9301 97.662 49.8867C98.2781 49.7565 98.9636 49.5656 99.3772 49.2966C99.7012 49.0855 99.8892 48.7499 100.138 48.4289C100.919 47.4165 101.402 45.7417 101.275 43.9947C101.156 42.372 100.063 41.1687 99.6346 39.8121M97.7777 45.7996C97.4711 45.895 97.2512 46.0859 96.9186 46.1525C96.8289 46.1756 96.8347 46.1062 96.8116 46.0657C96.7392 46.0541 96.8347 46.2248 96.7277 46.1785C96.6235 45.5335 97.0054 44.9463 97.176 44.4459C97.2136 44.336 97.1992 44.2087 97.2368 44.1046C97.3206 43.8761 97.4711 43.6909 97.581 43.4567C97.7661 43.0546 97.8529 42.586 98.0987 42.2968C98.3706 42.1174 98.4632 41.51 98.7264 41.2236C98.7495 41.2179 98.7524 41.2352 98.7524 41.2526C98.6396 42.7914 98.5181 44.7612 97.7777 45.8025" fill="black"></path>
          <path d="M52.1263 37.2985C51.9557 37.3158 51.8255 37.4287 51.7445 37.3448C51.5189 37.4836 51.3454 37.8191 51.0763 38.0361C50.9606 38.1286 50.816 38.1662 50.7177 38.2733C50.6569 38.3398 50.5499 38.577 50.4631 38.7014C49.8875 39.5286 49.2425 40.3443 48.6409 41.241C47.507 42.9331 46.3037 44.8248 45.5546 46.9016C45.1583 48.0037 44.7736 49.126 44.5827 50.3553C44.5161 50.7805 44.493 51.359 44.6087 51.6048C44.8922 52.2036 45.9942 52.0185 46.4541 51.7263C46.3731 51.6569 46.2574 51.7639 46.2372 51.6685C46.5525 51.6569 46.8388 51.4747 47.1657 51.4168C47.4434 51.3677 47.6024 51.3966 47.7934 51.2953C47.9524 51.2115 48.0305 51.0234 48.1809 50.9772C48.3343 50.9309 48.5165 50.9887 48.6438 50.9598C48.8057 50.9222 48.9388 50.7978 49.0834 50.7515C49.1904 50.7168 49.3032 50.7371 49.4103 50.7053C49.8297 50.578 49.9946 50.2135 50.1363 49.771C50.1855 49.6206 50.2867 49.4875 50.3098 49.34C50.3619 48.99 50.3879 48.6313 50.4429 48.2842C50.5326 47.7231 50.6078 47.1938 50.6945 46.6615C50.7611 46.2479 50.7292 45.8314 50.8305 45.4409C50.897 45.1806 51.0532 44.9318 51.1197 44.6599C51.1776 44.4112 51.1458 44.1537 51.2181 43.9281C51.3077 43.6418 51.4668 43.3959 51.5334 43.1211C51.5507 43.0488 51.5449 42.9533 51.5652 42.8781C51.6346 42.6265 51.8053 42.424 51.8776 42.2331C51.9152 42.1377 51.9007 42.022 51.9383 41.9092C52.028 41.6575 52.1929 41.4811 52.2767 41.293C52.4676 40.8736 52.6209 40.3877 52.7945 39.9451C52.89 39.7022 52.997 39.4216 53.1098 39.1642C53.185 38.9964 53.2891 38.846 53.3383 38.6811C53.5928 37.8134 52.8408 37.2262 52.1205 37.2956" fill="black"></path>
          <path d="M109.584 26.4465C109.572 26.3453 109.517 26.2672 109.494 26.163C109.459 25.9982 109.468 25.8044 109.433 25.6453C109.35 25.2548 109.101 24.9569 108.907 24.6705C108.548 24.5606 108.268 24.3784 107.828 24.3465C106.902 24.8585 106.798 26.2209 105.971 26.8341C105.138 27.3779 104.276 27.8928 103.307 28.2948C102.136 28.6708 101.117 29.0874 100.096 29.6138C100.183 29.3535 100.302 29.1279 100.305 28.7779C100.365 28.6911 100.438 28.6043 100.475 28.4973C100.634 28.0518 100.808 27.2304 100.924 26.7068C100.987 26.4263 101.129 26.2093 101.161 25.9114C101.311 24.4796 101.239 22.4635 100.539 21.5813C100.281 21.2573 99.8736 21.1445 99.5642 20.8726C99.3501 20.8929 99.1737 20.7164 98.9075 20.7714C98.7716 20.8003 98.5981 21.0607 98.4332 21.1619C98.3985 21.1821 98.3319 21.1416 98.2972 21.159C98.196 21.2053 98.0109 21.3268 97.9357 21.3788C97.7303 21.5292 97.5712 21.7982 97.6204 22.0586C97.9675 22.2263 98.089 22.6949 98.3435 22.99C98.3695 23.0218 98.4534 23.0247 98.4795 23.0507C98.6935 23.2619 98.76 23.473 98.7369 23.8288C98.6848 24.6647 98.2162 25.6424 98.0514 26.4436C97.5799 27.7568 97.0274 29.0179 96.5675 30.4121C96.3795 30.9848 96.1394 31.5634 95.9543 32.1419C95.7518 32.7695 95.6506 33.4146 95.4221 33.9873C95.3237 34.2302 95.1936 34.4067 95.1617 34.667C95.1415 34.8232 95.1675 34.9794 95.1531 35.124C95.0605 35.9715 94.563 36.9955 94.9303 37.9211C95.1473 37.9732 95.2254 38.1669 95.3903 38.274C95.558 38.1959 95.7489 38.3 95.8068 38.0831C95.8646 38.1004 95.8849 38.1554 95.9688 38.1438C96.0497 38.0946 96.044 37.9529 96.1655 37.9471C96.1886 38.0339 96.1944 38.1438 96.2696 38.1785C96.3621 38.1409 96.3159 37.9558 96.4402 37.9529C96.8249 37.9674 96.9667 38.0339 97.2935 37.8285C97.4092 37.9008 97.6001 37.8951 97.6753 38.0108C97.8344 37.8806 98.1034 37.7707 98.2047 37.5942C98.3319 37.3744 98.3898 36.9405 98.4447 36.6571C98.7427 35.0922 99.0464 33.1051 99.6162 31.8526C99.8389 31.2799 100.024 30.0506 100.065 29.7758C100.143 29.7816 100.232 29.8307 100.339 29.9464C100.568 29.9783 100.799 29.9117 100.903 30.0274C100.924 30.1258 100.655 30.1402 100.782 30.1894C101.013 30.0592 101.271 30.1894 101.56 30.201C101.546 30.3109 101.661 30.4035 101.791 30.4411C101.777 30.5163 101.655 30.4758 101.624 30.5336C102.156 30.5944 102.769 30.6638 103.174 30.7737C103.125 30.9848 103.405 31.034 103.472 31.2018C103.7 31.2654 103.891 31.3667 104.129 31.4245C104.166 31.4795 104.134 31.6067 104.195 31.6386C104.565 31.7398 105.037 31.7629 105.393 31.7774C106.188 31.8063 106.772 31.2915 107.409 31.0572C107.455 30.9935 107.516 30.9444 107.553 30.872C107.79 30.7911 107.967 30.5452 108.175 30.3167C108.352 30.1229 108.571 29.932 108.728 29.689C108.884 29.446 109.008 29.1279 109.167 28.8241C109.462 28.2601 109.619 27.8147 109.572 27.1118C109.558 26.8891 109.607 26.6634 109.584 26.4523" fill="black"></path>
        </svg>